<svg id="Layer_1" data-name="Layer 1" xmlns="http://www.w3.org/2000/svg" viewBox="0 0 705.26 705.26">
  <defs>
    <style>
      .cls-1 { fill: #D2B48C; stroke: #664229; stroke-miterlimit: 10; stroke-width: 27px; }
      .cls-2 { fill: #664229; }
      .cls-3 { fill: #664229;; }
    </style>
  </defs>
  <circle class="cls-1" cx="352.63" cy="352.63" r="339.13"/>
  <circle class="cls-3" cx="352.63" cy="352.63" r="120.81"/>
  <circle class="cls-2" cx="503.87" cy="213.44" r="3.11"/>
  <path class="cls-2" d="M1100.56,422.22l0,.34.27-2a4.37,4.37,0,0,1-.26.94l.76-1.79c-.53,1,1.15-1.18.54-.61s1.69-1.1.6-.53l1.79-.76a4.37,4.37,0,0,1-.94.26l2-.27a2.51,2.51,0,0,1-.67,0l2,.27a4.37,4.37,0,0,1-.94-.26l1.79.76c-1-.53,1.18,1.15.61.53s1.1,1.7.53.61l.76,1.79a4.37,4.37,0,0,1-.26-.94l.27,2a2.51,2.51,0,0,1,0-.67l-.27,2a4.37,4.37,0,0,1,.26-.94l-.76,1.79c.53-1-1.15,1.18-.53.6s-1.7,1.1-.61.54l-1.79.76a4.37,4.37,0,0,1,.94-.26l-2,.27a2.51,2.51,0,0,1,.67,0l-2-.27a4.37,4.37,0,0,1,.94.26l-1.79-.76c1,.52-1.18-1.15-.6-.54s-1.1-1.69-.54-.6l-.76-1.79a4.37,4.37,0,0,1,.26.94l-.27-2,0,.33c.21,3.92,3.3,7.69,7.5,7.5,3.88-.17,7.73-3.3,7.5-7.5a11.09,11.09,0,0,0-3.11-7.49,10.6,10.6,0,0,0-18.1,7.49c-.14,5.73,4.85,10.47,10.44,10.6a10.63,10.63,0,0,0,7.55-3,11.18,11.18,0,0,0,3.22-7.61,7.55,7.55,0,0,0-7.5-7.5A7.68,7.68,0,0,0,1100.56,422.22Z" transform="translate(-601.08 -208.79)"/>
  <circle class="cls-2" cx="558.84" cy="346.73" r="3.11"/>
  <path class="cls-2" d="M1155.53,555.52l0,.33.27-2a4.62,4.62,0,0,1-.26.95l.76-1.8c-.53,1,1.15-1.18.53-.6s1.7-1.1.61-.54l1.79-.76a3.86,3.86,0,0,1-.94.26l2-.27a2.51,2.51,0,0,1-.67,0l2,.27a3.86,3.86,0,0,1-.94-.26l1.79.76c-1-.52,1.18,1.15.6.54s1.1,1.69.54.6l.76,1.8a4.07,4.07,0,0,1-.26-.95l.27,2a2.51,2.51,0,0,1,0-.67l-.27,2a3.86,3.86,0,0,1,.26-.94l-.76,1.79c.52-1-1.15,1.18-.54.61s-1.69,1.1-.6.53l-1.79.76a4.37,4.37,0,0,1,.94-.26l-2,.27a2.51,2.51,0,0,1,.67,0l-2-.27a4.37,4.37,0,0,1,.94.26l-1.79-.76c1,.53-1.18-1.15-.61-.53s-1.1-1.7-.53-.61l-.76-1.79a4.37,4.37,0,0,1,.26.94l-.27-2,0,.34c.21,3.91,3.3,7.68,7.5,7.5,3.88-.18,7.73-3.31,7.5-7.5a11.11,11.11,0,0,0-3.11-7.5,10.6,10.6,0,0,0-18.1,7.5c-.14,5.73,4.85,10.46,10.43,10.59a10.62,10.62,0,0,0,7.56-3,11.2,11.2,0,0,0,3.22-7.61,7.54,7.54,0,0,0-7.5-7.5A7.67,7.67,0,0,0,1155.53,555.52Z" transform="translate(-601.08 -208.79)"/>
  <circle class="cls-2" cx="558.84" cy="346.73" r="3.11"/>
  <path class="cls-2" d="M1155.53,555.52l0,.33.27-2a4.62,4.62,0,0,1-.26.95l.76-1.8c-.53,1,1.15-1.18.53-.6s1.7-1.1.61-.54l1.79-.76a3.86,3.86,0,0,1-.94.26l2-.27a2.51,2.51,0,0,1-.67,0l2,.27a3.86,3.86,0,0,1-.94-.26l1.79.76c-1-.52,1.18,1.15.6.54s1.1,1.69.54.6l.76,1.8a4.07,4.07,0,0,1-.26-.95l.27,2a2.51,2.51,0,0,1,0-.67l-.27,2a3.86,3.86,0,0,1,.26-.94l-.76,1.79c.52-1-1.15,1.18-.54.61s-1.69,1.1-.6.53l-1.79.76a4.37,4.37,0,0,1,.94-.26l-2,.27a2.51,2.51,0,0,1,.67,0l-2-.27a4.37,4.37,0,0,1,.94.26l-1.79-.76c1,.53-1.18-1.15-.61-.53s-1.1-1.7-.53-.61l-.76-1.79a4.37,4.37,0,0,1,.26.94l-.27-2,0,.34c.21,3.91,3.3,7.68,7.5,7.5,3.88-.18,7.73-3.31,7.5-7.5a11.11,11.11,0,0,0-3.11-7.5,10.6,10.6,0,0,0-18.1,7.5c-.14,5.73,4.85,10.46,10.43,10.59a10.62,10.62,0,0,0,7.56-3,11.2,11.2,0,0,0,3.22-7.61,7.54,7.54,0,0,0-7.5-7.5A7.67,7.67,0,0,0,1155.53,555.52Z" transform="translate(-601.08 -208.79)"/>
  <circle class="cls-2" cx="538.84" cy="456.73" r="3.11"/>
  <path class="cls-2" d="M1135.53,665.52l0,.33.27-2a4.62,4.62,0,0,1-.26.95l.76-1.8c-.53,1,1.15-1.18.53-.6s1.7-1.1.61-.54l1.79-.76a3.86,3.86,0,0,1-.94.26l2-.27a2.51,2.51,0,0,1-.67,0l2,.27a3.86,3.86,0,0,1-.94-.26l1.79.76c-1-.52,1.18,1.15.6.54s1.1,1.69.54.6l.76,1.8a4.07,4.07,0,0,1-.26-.95l.27,2a2.51,2.51,0,0,1,0-.67l-.27,2a3.86,3.86,0,0,1,.26-.94l-.76,1.79c.52-1-1.15,1.18-.54.61s-1.69,1.1-.6.53l-1.79.76a4.37,4.37,0,0,1,.94-.26l-2,.27a2.51,2.51,0,0,1,.67,0l-2-.27a4.37,4.37,0,0,1,.94.26l-1.79-.76c1,.53-1.18-1.15-.61-.53s-1.1-1.7-.53-.61l-.76-1.79a4.37,4.37,0,0,1,.26.94l-.27-2,0,.34c.21,3.91,3.3,7.68,7.5,7.5,3.88-.18,7.73-3.31,7.5-7.5a11.11,11.11,0,0,0-3.11-7.5,10.6,10.6,0,0,0-18.1,7.5c-.14,5.73,4.85,10.46,10.43,10.59a10.62,10.62,0,0,0,7.56-3,11.2,11.2,0,0,0,3.22-7.61,7.54,7.54,0,0,0-7.5-7.5A7.67,7.67,0,0,0,1135.53,665.52Z" transform="translate(-601.08 -208.79)"/>
  <circle class="cls-2" cx="398.84" cy="616.73" r="3.11"/>
  <path class="cls-2" d="M995.53,825.52l0,.33.27-2a4.62,4.62,0,0,1-.26.95l.76-1.8c-.53,1,1.15-1.18.53-.6s1.7-1.1.61-.54l1.79-.76a3.86,3.86,0,0,1-.94.26l2-.27a2.51,2.51,0,0,1-.67,0l2,.27a3.86,3.86,0,0,1-.94-.26l1.79.76c-1-.52,1.18,1.15.6.54s1.1,1.69.54.6l.76,1.8a4.07,4.07,0,0,1-.26-.95l.27,2a2.51,2.51,0,0,1,0-.67l-.27,2a3.86,3.86,0,0,1,.26-.94l-.76,1.79c.52-1-1.15,1.18-.54.61s-1.69,1.1-.6.53l-1.79.76a4.37,4.37,0,0,1,.94-.26l-2,.27a2.51,2.51,0,0,1,.67,0l-2-.27a4.37,4.37,0,0,1,.94.26l-1.79-.76c1,.53-1.18-1.15-.61-.53s-1.1-1.7-.53-.61l-.76-1.79a4.37,4.37,0,0,1,.26.94l-.27-2,0,.34c.21,3.91,3.3,7.68,7.5,7.5,3.88-.18,7.73-3.31,7.5-7.5a11.11,11.11,0,0,0-3.11-7.5,10.6,10.6,0,0,0-18.1,7.5c-.14,5.73,4.85,10.46,10.43,10.59a10.62,10.62,0,0,0,7.56-3,11.2,11.2,0,0,0,3.22-7.61,7.54,7.54,0,0,0-7.5-7.5A7.67,7.67,0,0,0,995.53,825.52Z" transform="translate(-601.08 -208.79)"/>
  <circle class="cls-2" cx="468.84" cy="506.73" r="3.11"/>
  <path class="cls-2" d="M1065.53,715.52l0,.33.27-2a4.62,4.62,0,0,1-.26.95l.76-1.8c-.53,1,1.15-1.18.53-.6s1.7-1.1.61-.54l1.79-.76a3.86,3.86,0,0,1-.94.26l2-.27a2.51,2.51,0,0,1-.67,0l2,.27a3.86,3.86,0,0,1-.94-.26l1.79.76c-1-.52,1.18,1.15.6.54s1.1,1.69.54.6l.76,1.8a4.07,4.07,0,0,1-.26-.95l.27,2a2.51,2.51,0,0,1,0-.67l-.27,2a3.86,3.86,0,0,1,.26-.94l-.76,1.79c.52-1-1.15,1.18-.54.61s-1.69,1.1-.6.53l-1.79.76a4.37,4.37,0,0,1,.94-.26l-2,.27a2.51,2.51,0,0,1,.67,0l-2-.27a4.37,4.37,0,0,1,.94.26l-1.79-.76c1,.53-1.18-1.15-.61-.53s-1.1-1.7-.53-.61l-.76-1.79a4.37,4.37,0,0,1,.26.94l-.27-2,0,.34c.21,3.91,3.3,7.68,7.5,7.5,3.88-.18,7.73-3.31,7.5-7.5a11.11,11.11,0,0,0-3.11-7.5,10.6,10.6,0,0,0-18.1,7.5c-.14,5.73,4.85,10.46,10.43,10.59a10.62,10.62,0,0,0,7.56-3,11.2,11.2,0,0,0,3.22-7.61,7.54,7.54,0,0,0-7.5-7.5A7.67,7.67,0,0,0,1065.53,715.52Z" transform="translate(-601.08 -208.79)"/>
  <circle class="cls-2" cx="318.84" cy="86.73" r="3.11"/>
  <path class="cls-2" d="M915.53,295.52l0,.33.27-2a4.62,4.62,0,0,1-.26.95l.76-1.8c-.53,1,1.15-1.18.53-.6s1.7-1.1.61-.54l1.79-.76a3.86,3.86,0,0,1-.94.26l2-.27a2.51,2.51,0,0,1-.67,0l2,.27a3.86,3.86,0,0,1-.94-.26l1.79.76c-1-.52,1.18,1.15.6.54s1.1,1.69.54.6l.76,1.8a4.07,4.07,0,0,1-.26-.95l.27,2a2.51,2.51,0,0,1,0-.67l-.27,2a3.86,3.86,0,0,1,.26-.94l-.76,1.79c.52-1-1.15,1.18-.54.61s-1.69,1.1-.6.53l-1.79.76a4.37,4.37,0,0,1,.94-.26l-2,.27a2.51,2.51,0,0,1,.67,0l-2-.27a4.37,4.37,0,0,1,.94.26l-1.79-.76c1,.53-1.18-1.15-.61-.53s-1.1-1.7-.53-.61l-.76-1.79a4.37,4.37,0,0,1,.26.94l-.27-2,0,.34c.21,3.91,3.3,7.68,7.5,7.5,3.88-.18,7.73-3.31,7.5-7.5a11.11,11.11,0,0,0-3.11-7.5,10.6,10.6,0,0,0-18.1,7.5c-.14,5.73,4.85,10.46,10.43,10.59a10.62,10.62,0,0,0,7.56-3,11.2,11.2,0,0,0,3.22-7.61A7.54,7.54,0,0,0,923,288,7.67,7.67,0,0,0,915.53,295.52Z" transform="translate(-601.08 -208.79)"/>
  <circle class="cls-2" cx="108.84" cy="346.73" r="3.11"/>
  <path class="cls-2" d="M705.53,555.52l0,.33.27-2a4.62,4.62,0,0,1-.26.95l.76-1.8c-.53,1,1.15-1.18.53-.6s1.7-1.1.61-.54l1.79-.76a3.86,3.86,0,0,1-.94.26l2-.27a2.51,2.51,0,0,1-.67,0l2,.27a3.86,3.86,0,0,1-.94-.26l1.79.76c-1-.52,1.18,1.15.6.54s1.1,1.69.54.6l.76,1.8a4.07,4.07,0,0,1-.26-.95l.27,2a2.51,2.51,0,0,1,0-.67l-.27,2a3.86,3.86,0,0,1,.26-.94l-.76,1.79c.52-1-1.15,1.18-.54.61s-1.69,1.1-.6.53l-1.79.76a4.37,4.37,0,0,1,.94-.26l-2,.27a2.51,2.51,0,0,1,.67,0l-2-.27a4.37,4.37,0,0,1,.94.26l-1.79-.76c1,.53-1.18-1.15-.61-.53s-1.1-1.7-.53-.61l-.76-1.79a4.37,4.37,0,0,1,.26.94l-.27-2,0,.34c.21,3.91,3.3,7.68,7.5,7.5,3.88-.18,7.73-3.31,7.5-7.5a11.11,11.11,0,0,0-3.11-7.5,10.6,10.6,0,0,0-18.1,7.5c-.14,5.73,4.85,10.46,10.43,10.59a10.62,10.62,0,0,0,7.56-3,11.2,11.2,0,0,0,3.22-7.61A7.54,7.54,0,0,0,713,548,7.67,7.67,0,0,0,705.53,555.52Z" transform="translate(-601.08 -208.79)"/>
  <circle class="cls-2" cx="630.78" cy="414.47" r="3.11"/>
  <path class="cls-2" d="M1227.46,623.26v.34l.26-2a4.59,4.59,0,0,1-.25.95l.75-1.8c-.52,1,1.15-1.18.54-.6s1.69-1.1.61-.54l1.79-.76a4.07,4.07,0,0,1-1,.26l2-.27a2.58,2.58,0,0,1-.68,0l2,.27a3.86,3.86,0,0,1-.94-.26l1.79.76c-1-.52,1.18,1.15.61.54s1.1,1.69.53.6l.76,1.8a4.62,4.62,0,0,1-.26-.95l.27,2a3.86,3.86,0,0,1,0-.68l-.27,2a4.37,4.37,0,0,1,.26-.94l-.76,1.79c.53-1-1.15,1.18-.53.61s-1.7,1.1-.61.53l-1.79.76a4.37,4.37,0,0,1,.94-.26l-2,.27a3.86,3.86,0,0,1,.68,0l-2-.27a4.62,4.62,0,0,1,1,.26l-1.79-.76c1,.53-1.19-1.15-.61-.53s-1.1-1.7-.54-.61l-.75-1.79a4.35,4.35,0,0,1,.25.94l-.26-2v.34c.21,3.91,3.3,7.69,7.5,7.5,3.89-.18,7.73-3.31,7.5-7.5a11.11,11.11,0,0,0-3.11-7.5,10.6,10.6,0,0,0-18.1,7.5c-.14,5.73,4.86,10.46,10.44,10.59a10.62,10.62,0,0,0,7.55-3,11.11,11.11,0,0,0,3.22-7.61,7.54,7.54,0,0,0-7.5-7.5A7.67,7.67,0,0,0,1227.46,623.26Z" transform="translate(-601.08 -208.79)"/>
  <circle class="cls-2" cx="592.35" cy="246.95" r="3.11"/>
  <path class="cls-2" d="M1189,455.74v.33l.26-2a4.35,4.35,0,0,1-.25.94l.75-1.79c-.52,1,1.15-1.18.54-.6s1.69-1.1.61-.54l1.79-.76a3.94,3.94,0,0,1-1,.26l2-.27a2.58,2.58,0,0,1-.68,0l2,.27a3.86,3.86,0,0,1-.94-.26l1.79.76c-1-.52,1.18,1.15.61.54s1.1,1.69.54.6l.75,1.79a5,5,0,0,1-.26-.94l.27,2a3.75,3.75,0,0,1,0-.67l-.27,2a5,5,0,0,1,.26-.94l-.75,1.79c.52-1-1.16,1.18-.54.61s-1.7,1.1-.61.53l-1.79.76a4.37,4.37,0,0,1,.94-.26l-2,.27a2.58,2.58,0,0,1,.68,0l-2-.27a4.46,4.46,0,0,1,1,.26l-1.79-.76c1,.53-1.18-1.15-.61-.53s-1.1-1.7-.54-.61l-.75-1.79a4.35,4.35,0,0,1,.25.94l-.26-2v.34c.21,3.91,3.3,7.68,7.5,7.5,3.89-.18,7.73-3.31,7.5-7.5a11.11,11.11,0,0,0-3.11-7.5,10.6,10.6,0,0,0-18.1,7.5c-.14,5.72,4.86,10.46,10.44,10.59a10.58,10.58,0,0,0,7.55-3,11.09,11.09,0,0,0,3.22-7.6,7.54,7.54,0,0,0-7.5-7.5A7.67,7.67,0,0,0,1189,455.74Z" transform="translate(-601.08 -208.79)"/>
  <circle class="cls-2" cx="549.06" cy="150.99" r="3.11"/>
  <path class="cls-2" d="M1145.75,359.77l0,.34.27-2a5,5,0,0,1-.26.94l.75-1.79c-.52,1,1.16-1.18.54-.61s1.69-1.1.61-.53l1.79-.76a4.3,4.3,0,0,1-1,.26l2-.27a3.86,3.86,0,0,1-.68,0l2,.27a4.3,4.3,0,0,1-1-.26l1.79.76c-1-.53,1.18,1.15.61.53s1.1,1.7.54.61l.75,1.79a5,5,0,0,1-.26-.94l.27,2a3.86,3.86,0,0,1,0-.68l-.27,2a5.36,5.36,0,0,1,.26-.95l-.75,1.8c.52-1-1.16,1.18-.54.6s-1.69,1.1-.61.54l-1.79.76a3.82,3.82,0,0,1,1-.26l-2,.27a2.58,2.58,0,0,1,.68,0l-2-.27a3.82,3.82,0,0,1,1,.26l-1.79-.76c1,.52-1.18-1.15-.61-.54s-1.1-1.69-.54-.6l-.75-1.8a5.36,5.36,0,0,1,.26.95l-.27-2,0,.34c.21,3.91,3.29,7.69,7.5,7.5,3.88-.17,7.72-3.3,7.5-7.5a11.18,11.18,0,0,0-3.11-7.49,10.61,10.61,0,0,0-18.11,7.49c-.14,5.73,4.86,10.47,10.44,10.6a10.61,10.61,0,0,0,7.55-3,11.15,11.15,0,0,0,3.23-7.61,7.55,7.55,0,0,0-7.5-7.5A7.66,7.66,0,0,0,1145.75,359.77Z" transform="translate(-601.08 -208.79)"/>
  <circle class="cls-2" cx="443.82" cy="115.54" r="3.11"/>
  <path class="cls-2" d="M1040.51,324.33l0,.33.27-2a5,5,0,0,1-.26.94l.75-1.79c-.52,1,1.16-1.18.54-.61s1.69-1.1.61-.53l1.79-.76a4.37,4.37,0,0,1-.94.26l2-.27a2.58,2.58,0,0,1-.68,0l2,.27a4.3,4.3,0,0,1-1-.26l1.79.76c-1-.53,1.18,1.15.61.53s1.1,1.7.54.61l.75,1.79a4.35,4.35,0,0,1-.25-.94l.26,2a3.75,3.75,0,0,1,0-.67l-.26,2a4.35,4.35,0,0,1,.25-.94l-.75,1.79c.52-1-1.15,1.18-.54.61s-1.69,1.1-.61.53l-1.79.76a4.3,4.3,0,0,1,1-.26l-2,.27a2.58,2.58,0,0,1,.68,0l-2-.27a4.37,4.37,0,0,1,.94.26l-1.79-.76c1,.53-1.18-1.15-.61-.53s-1.1-1.7-.54-.61l-.75-1.79a5,5,0,0,1,.26.94l-.27-2,0,.34c.21,3.91,3.3,7.68,7.5,7.5,3.88-.18,7.72-3.31,7.5-7.5a11.19,11.19,0,0,0-3.11-7.5,10.6,10.6,0,0,0-18.1,7.5c-.15,5.72,4.85,10.46,10.43,10.59a10.57,10.57,0,0,0,7.55-3,11.14,11.14,0,0,0,3.23-7.6,7.54,7.54,0,0,0-7.5-7.5A7.66,7.66,0,0,0,1040.51,324.33Z" transform="translate(-601.08 -208.79)"/>
  <circle class="cls-2" cx="407.71" cy="168.54" r="3.11"/>
  <path class="cls-2" d="M1004.4,377.33l0,.34.27-2a5,5,0,0,1-.26.94l.75-1.79c-.52,1,1.16-1.18.54-.61s1.69-1.1.61-.54l1.79-.75a5,5,0,0,1-.94.26l2-.27a3.86,3.86,0,0,1-.68,0l2,.27a4.93,4.93,0,0,1-1-.26l1.79.75c-1-.52,1.18,1.16.61.54s1.1,1.7.54.61l.75,1.79a4.35,4.35,0,0,1-.25-.94l.26,2a3.86,3.86,0,0,1,0-.68l-.26,2a4.28,4.28,0,0,1,.25-.95l-.75,1.79c.52-1-1.16,1.18-.54.61s-1.69,1.1-.61.54l-1.79.75a4.28,4.28,0,0,1,1-.25l-2,.26a3.86,3.86,0,0,1,.68,0l-2-.26a4.35,4.35,0,0,1,.94.25l-1.79-.75c1,.52-1.18-1.15-.61-.54s-1.1-1.69-.54-.61l-.75-1.79a4.93,4.93,0,0,1,.26.95l-.27-2,0,.34c.21,3.91,3.29,7.69,7.5,7.5,3.88-.17,7.72-3.3,7.5-7.5a11.23,11.23,0,0,0-3.11-7.5,10.61,10.61,0,0,0-18.11,7.5c-.14,5.73,4.86,10.47,10.44,10.6a10.61,10.61,0,0,0,7.55-3,11.15,11.15,0,0,0,3.23-7.61,7.55,7.55,0,0,0-7.5-7.5A7.66,7.66,0,0,0,1004.4,377.33Z" transform="translate(-601.08 -208.79)"/>
  <circle class="cls-2" cx="389.05" cy="73.46" r="3.11"/>
  <path class="cls-2" d="M985.73,282.25v.34l.26-2a4.35,4.35,0,0,1-.25.94l.75-1.79c-.52,1,1.15-1.18.54-.61s1.69-1.1.61-.54l1.79-.75a5.36,5.36,0,0,1-.95.26l2-.27a3.86,3.86,0,0,1-.68,0l2,.27a5,5,0,0,1-.94-.26l1.79.75c-1-.52,1.18,1.16.61.54s1.1,1.7.53.61l.76,1.79a4.37,4.37,0,0,1-.26-.94l.27,2a3.86,3.86,0,0,1,0-.68l-.27,2a4.46,4.46,0,0,1,.26-1l-.76,1.79c.53-1-1.15,1.18-.53.61s-1.7,1.1-.61.54l-1.79.75a4.35,4.35,0,0,1,.94-.25l-2,.26a3.86,3.86,0,0,1,.68,0l-2-.26a4.59,4.59,0,0,1,.95.25l-1.79-.75c1,.52-1.19-1.15-.61-.54s-1.1-1.69-.54-.61l-.75-1.79a4.43,4.43,0,0,1,.25,1l-.26-2v.34c.21,3.91,3.3,7.69,7.5,7.5,3.89-.17,7.73-3.3,7.5-7.5a11.13,11.13,0,0,0-3.11-7.5,10.61,10.61,0,0,0-18.1,7.5c-.14,5.73,4.86,10.47,10.44,10.6a10.63,10.63,0,0,0,7.55-3,11.09,11.09,0,0,0,3.22-7.61,7.55,7.55,0,0,0-7.5-7.5A7.68,7.68,0,0,0,985.73,282.25Z" transform="translate(-601.08 -208.79)"/>
  <circle class="cls-2" cx="240.43" cy="205.92" r="3.11"/>
  <path class="cls-2" d="M837.12,414.71l0,.34.27-2a4.62,4.62,0,0,1-.26.95l.76-1.8c-.53,1,1.15-1.18.53-.6s1.7-1.1.61-.54l1.79-.76a3.86,3.86,0,0,1-.94.26l2-.26a3.75,3.75,0,0,1-.67,0l2,.26a3.86,3.86,0,0,1-.94-.26l1.79.76c-1-.52,1.18,1.15.6.54s1.1,1.69.54.6l.76,1.8a4.62,4.62,0,0,1-.26-.95l.27,2a2.58,2.58,0,0,1,0-.68l-.27,2a4.37,4.37,0,0,1,.26-.94l-.76,1.79c.53-1-1.15,1.18-.54.61s-1.69,1.1-.6.53l-1.79.76a4.37,4.37,0,0,1,.94-.26l-2,.27a3.75,3.75,0,0,1,.67,0l-2-.27a4.37,4.37,0,0,1,.94.26l-1.79-.76c1,.53-1.18-1.15-.61-.53s-1.1-1.7-.53-.61l-.76-1.79a4.37,4.37,0,0,1,.26.94l-.27-2,0,.34c.21,3.91,3.3,7.69,7.5,7.5,3.88-.18,7.73-3.31,7.5-7.5a11.11,11.11,0,0,0-3.11-7.5,10.6,10.6,0,0,0-18.1,7.5c-.14,5.73,4.85,10.46,10.44,10.59a10.62,10.62,0,0,0,7.55-3,11.2,11.2,0,0,0,3.22-7.61,7.54,7.54,0,0,0-7.5-7.5A7.67,7.67,0,0,0,837.12,414.71Z" transform="translate(-601.08 -208.79)"/>
  <circle class="cls-2" cx="160.13" cy="238.06" r="3.11"/>
  <path class="cls-2" d="M756.81,446.85v.33l.26-2a4.07,4.07,0,0,1-.26.95l.76-1.8c-.52,1,1.15-1.18.54-.6s1.69-1.1.6-.54l1.8-.76a4.07,4.07,0,0,1-1,.26l2-.27a2.58,2.58,0,0,1-.68,0l2,.27a3.86,3.86,0,0,1-.94-.26l1.79.76c-1-.52,1.18,1.15.61.54s1.1,1.69.53.6l.76,1.8a4.62,4.62,0,0,1-.26-.95l.27,2a3.75,3.75,0,0,1,0-.67l-.27,2a4.37,4.37,0,0,1,.26-.94l-.76,1.79c.53-1-1.15,1.18-.53.61s-1.7,1.1-.61.53l-1.79.76a4.37,4.37,0,0,1,.94-.26l-2,.27a2.58,2.58,0,0,1,.68,0l-2-.27a4.62,4.62,0,0,1,1,.26l-1.8-.76c1,.53-1.18-1.15-.6-.53s-1.1-1.7-.54-.61l-.76-1.79a3.86,3.86,0,0,1,.26.94l-.26-2v.34c.21,3.91,3.3,7.68,7.5,7.5,3.89-.18,7.73-3.31,7.5-7.5a11.11,11.11,0,0,0-3.11-7.5,10.6,10.6,0,0,0-18.1,7.5c-.14,5.73,4.85,10.46,10.44,10.59a10.62,10.62,0,0,0,7.55-3,11.13,11.13,0,0,0,3.22-7.61,7.54,7.54,0,0,0-7.5-7.5A7.67,7.67,0,0,0,756.81,446.85Z" transform="translate(-601.08 -208.79)"/>
  <circle class="cls-2" cx="244.49" cy="120.26" r="3.11"/>
  <path class="cls-2" d="M841.18,329.05l0,.33.27-2a3.86,3.86,0,0,1-.26.94l.76-1.79c-.52,1,1.15-1.18.54-.6s1.69-1.1.6-.54l1.79-.76a3.86,3.86,0,0,1-.94.26l2-.27a2.51,2.51,0,0,1-.67,0l2,.27a3.86,3.86,0,0,1-.94-.26l1.79.76c-1-.52,1.18,1.15.61.54s1.1,1.69.53.6l.76,1.79a4.37,4.37,0,0,1-.26-.94l.27,2a2.51,2.51,0,0,1,0-.67l-.27,2a4.37,4.37,0,0,1,.26-.94l-.76,1.79c.53-1-1.15,1.18-.53.61s-1.7,1.1-.61.53l-1.79.76a4.37,4.37,0,0,1,.94-.26l-2,.27a2.51,2.51,0,0,1,.67,0l-2-.27a4.37,4.37,0,0,1,.94.26l-1.79-.76c1,.53-1.18-1.15-.6-.53s-1.1-1.7-.54-.61l-.76-1.79a3.86,3.86,0,0,1,.26.94l-.27-2,0,.34c.21,3.91,3.3,7.68,7.5,7.5,3.88-.18,7.73-3.31,7.5-7.5a11.11,11.11,0,0,0-3.11-7.5,10.6,10.6,0,0,0-18.1,7.5c-.14,5.72,4.85,10.46,10.44,10.59a10.58,10.58,0,0,0,7.55-3,11.13,11.13,0,0,0,3.22-7.6,7.54,7.54,0,0,0-7.5-7.5A7.67,7.67,0,0,0,841.18,329.05Z" transform="translate(-601.08 -208.79)"/>
  <circle class="cls-2" cx="165.2" cy="158.91" r="3.11"/>
  <path class="cls-2" d="M761.89,367.7l0,.33.27-2a4.07,4.07,0,0,1-.26.95l.76-1.8c-.52,1,1.15-1.18.54-.6s1.69-1.1.6-.54l1.8-.76a4.07,4.07,0,0,1-1,.26l2-.27a2.58,2.58,0,0,1-.68,0l2,.27a3.86,3.86,0,0,1-.94-.26l1.79.76c-1-.52,1.18,1.15.61.54s1.1,1.69.53.6l.76,1.8a4.62,4.62,0,0,1-.26-.95l.27,2a3.75,3.75,0,0,1,0-.67l-.27,2a4.37,4.37,0,0,1,.26-.94l-.76,1.79c.53-1-1.15,1.18-.53.61s-1.7,1.1-.61.53l-1.79.76a4.37,4.37,0,0,1,.94-.26l-2,.27a2.58,2.58,0,0,1,.68,0l-2-.27a4.62,4.62,0,0,1,1,.26l-1.8-.76c1,.53-1.18-1.15-.6-.53s-1.1-1.7-.54-.61l-.76-1.79a3.86,3.86,0,0,1,.26.94l-.27-2,0,.34c.21,3.91,3.3,7.68,7.5,7.5,3.89-.18,7.73-3.31,7.5-7.5a11.11,11.11,0,0,0-3.11-7.5,10.6,10.6,0,0,0-18.1,7.5c-.14,5.73,4.85,10.46,10.44,10.59a10.58,10.58,0,0,0,7.55-3,11.09,11.09,0,0,0,3.22-7.6,7.54,7.54,0,0,0-7.5-7.5A7.67,7.67,0,0,0,761.89,367.7Z" transform="translate(-601.08 -208.79)"/>
  <circle class="cls-2" cx="85.7" cy="276.58" r="3.11"/>
  <path class="cls-2" d="M682.38,485.37v.34l.26-2a4.59,4.59,0,0,1-.25,1l.75-1.79c-.52,1,1.15-1.19.54-.61s1.69-1.1.61-.54l1.79-.75a4.59,4.59,0,0,1-1,.25l2-.26a3.86,3.86,0,0,1-.68,0l2,.26a4.35,4.35,0,0,1-.94-.25l1.79.75c-1-.52,1.18,1.15.61.54s1.1,1.69.54.61l.75,1.79a4.62,4.62,0,0,1-.26-1l.27,2a3.86,3.86,0,0,1,0-.68l-.27,2a4.37,4.37,0,0,1,.26-.94l-.75,1.79c.52-1-1.16,1.18-.54.61s-1.7,1.1-.61.53l-1.79.76a4.37,4.37,0,0,1,.94-.26l-2,.27a3.86,3.86,0,0,1,.68,0l-2-.27a4.62,4.62,0,0,1,1,.26l-1.79-.76c1,.53-1.19-1.15-.61-.53s-1.1-1.7-.54-.61l-.75-1.79a4.35,4.35,0,0,1,.25.94l-.26-2v.34c.21,3.91,3.3,7.69,7.5,7.5,3.89-.18,7.73-3.31,7.5-7.5a11.11,11.11,0,0,0-3.11-7.5,10.6,10.6,0,0,0-18.1,7.5C676,491.1,681,495.83,686.61,496a10.62,10.62,0,0,0,7.55-3,11.11,11.11,0,0,0,3.22-7.61,7.54,7.54,0,0,0-7.5-7.5A7.67,7.67,0,0,0,682.38,485.37Z" transform="translate(-601.08 -208.79)"/>
  <circle class="cls-2" cx="171.42" cy="402.05" r="3.11"/>
  <path class="cls-2" d="M768.1,610.83v.34l.26-2a4.35,4.35,0,0,1-.25.94l.75-1.79c-.52,1,1.15-1.18.54-.61s1.69-1.1.61-.53l1.79-.76a4.46,4.46,0,0,1-.95.26l2-.27a2.58,2.58,0,0,1-.68,0l2,.27a4.37,4.37,0,0,1-.94-.26l1.79.76c-1-.53,1.18,1.15.61.53s1.1,1.7.54.61l.75,1.79a5,5,0,0,1-.26-.94l.27,2a3.75,3.75,0,0,1,0-.67l-.27,2a5,5,0,0,1,.26-.94l-.75,1.79c.52-1-1.16,1.18-.54.6s-1.7,1.1-.61.54l-1.79.76a3.86,3.86,0,0,1,.94-.26l-2,.27a2.58,2.58,0,0,1,.68,0l-2-.27a3.94,3.94,0,0,1,.95.26l-1.79-.76c1,.52-1.18-1.15-.61-.54s-1.1-1.69-.54-.6l-.75-1.79a4.35,4.35,0,0,1,.25.94l-.26-2v.33c.21,3.92,3.3,7.69,7.5,7.5,3.89-.17,7.73-3.3,7.5-7.5a11.12,11.12,0,0,0-3.1-7.49,10.61,10.61,0,0,0-18.11,7.49c-.14,5.73,4.86,10.47,10.44,10.6a10.63,10.63,0,0,0,7.55-3,11.09,11.09,0,0,0,3.22-7.61c.22-3.92-3.6-7.67-7.5-7.5A7.68,7.68,0,0,0,768.1,610.83Z" transform="translate(-601.08 -208.79)"/>
  <circle class="cls-2" cx="108.84" cy="475.37" r="3.11"/>
  <path class="cls-2" d="M705.53,684.16l0,.34.27-2a4.3,4.3,0,0,1-.26,1l.76-1.79c-.53,1,1.15-1.18.53-.61s1.7-1.1.61-.54l1.79-.75a4.35,4.35,0,0,1-.94.25l2-.26a3.75,3.75,0,0,1-.67,0l2,.26a4.35,4.35,0,0,1-.94-.25l1.79.75c-1-.52,1.18,1.16.6.54s1.1,1.69.54.61l.76,1.79a3.82,3.82,0,0,1-.26-1l.27,2a2.58,2.58,0,0,1,0-.68l-.27,2a3.86,3.86,0,0,1,.26-.94l-.76,1.79c.52-1-1.15,1.18-.54.61s-1.69,1.1-.6.54l-1.79.75a5,5,0,0,1,.94-.26l-2,.27a3.75,3.75,0,0,1,.67,0l-2-.27a5,5,0,0,1,.94.26l-1.79-.75c1,.52-1.18-1.16-.61-.54s-1.1-1.69-.53-.61l-.76-1.79a4.37,4.37,0,0,1,.26.94l-.27-2,0,.34c.21,3.91,3.3,7.69,7.5,7.5,3.88-.17,7.73-3.3,7.5-7.5a11.13,11.13,0,0,0-3.11-7.5,10.6,10.6,0,0,0-18.1,7.5c-.14,5.73,4.85,10.47,10.43,10.6a10.67,10.67,0,0,0,7.56-3,11.18,11.18,0,0,0,3.22-7.61,7.55,7.55,0,0,0-7.5-7.5A7.68,7.68,0,0,0,705.53,684.16Z" transform="translate(-601.08 -208.79)"/>
  <circle class="cls-2" cx="212.36" cy="505.11" r="3.11"/>
  <path class="cls-2" d="M809.05,713.9l0,.34.27-2a5,5,0,0,1-.26.94l.75-1.79c-.52,1,1.16-1.18.54-.61s1.69-1.1.61-.54l1.79-.75a4.37,4.37,0,0,1-.94.26l2-.27a3.86,3.86,0,0,1-.68,0l2,.27a4.3,4.3,0,0,1-1-.26l1.79.75c-1-.52,1.18,1.16.61.54s1.1,1.7.54.61l.75,1.79a4.35,4.35,0,0,1-.25-.94l.26,2a3.86,3.86,0,0,1,0-.68l-.26,2a4.59,4.59,0,0,1,.25-.95l-.75,1.79c.52-1-1.15,1.19-.54.61s-1.69,1.1-.61.54l-1.79.75a4.28,4.28,0,0,1,1-.25l-2,.26a3.86,3.86,0,0,1,.68,0l-2-.26a4.35,4.35,0,0,1,.94.25l-1.79-.75c1,.52-1.18-1.15-.61-.54s-1.1-1.69-.54-.61l-.75-1.79a5.36,5.36,0,0,1,.26.95l-.27-2,0,.34c.21,3.91,3.3,7.69,7.5,7.5,3.88-.17,7.72-3.3,7.5-7.5a11.18,11.18,0,0,0-3.11-7.49,10.6,10.6,0,0,0-18.1,7.49c-.15,5.73,4.85,10.47,10.43,10.6a10.61,10.61,0,0,0,7.55-3,11.15,11.15,0,0,0,3.23-7.61,7.55,7.55,0,0,0-7.5-7.5A7.66,7.66,0,0,0,809.05,713.9Z" transform="translate(-601.08 -208.79)"/>
  <circle class="cls-2" cx="181.73" cy="577.26" r="3.11"/>
  <path class="cls-2" d="M778.42,786.05l0,.34.27-2a4.3,4.3,0,0,1-.26,1l.76-1.79c-.53,1,1.15-1.18.53-.61s1.7-1.1.61-.54l1.79-.75a4.35,4.35,0,0,1-.94.25l2-.26a3.75,3.75,0,0,1-.67,0l2,.26a4.35,4.35,0,0,1-.94-.25l1.79.75c-1-.52,1.18,1.15.61.54s1.1,1.69.53.61l.76,1.79a4.3,4.3,0,0,1-.26-1l.27,2a2.58,2.58,0,0,1,0-.68l-.27,2a4.37,4.37,0,0,1,.26-.94l-.76,1.79c.53-1-1.15,1.18-.53.61s-1.7,1.1-.61.54l-1.79.75a5,5,0,0,1,.94-.26l-2,.27a3.75,3.75,0,0,1,.67,0l-2-.27a5,5,0,0,1,.94.26l-1.79-.75c1,.52-1.18-1.16-.61-.54s-1.09-1.7-.53-.61l-.76-1.79a4.37,4.37,0,0,1,.26.94l-.27-2,0,.34c.21,3.91,3.3,7.69,7.5,7.5,3.88-.17,7.73-3.31,7.5-7.5a11.11,11.11,0,0,0-3.11-7.5,10.6,10.6,0,0,0-18.1,7.5c-.14,5.73,4.85,10.47,10.44,10.6a10.67,10.67,0,0,0,7.55-3,11.18,11.18,0,0,0,3.22-7.61,7.54,7.54,0,0,0-7.5-7.5A7.68,7.68,0,0,0,778.42,786.05Z" transform="translate(-601.08 -208.79)"/>
  <circle class="cls-2" cx="306" cy="596.7" r="3.11"/>
  <path class="cls-2" d="M902.69,805.48l0,.34.27-2a4.37,4.37,0,0,1-.26.94l.76-1.79c-.53,1,1.15-1.18.53-.61s1.7-1.1.61-.53l1.79-.76a4.37,4.37,0,0,1-.94.26l2-.27a2.51,2.51,0,0,1-.67,0l2,.27a4.37,4.37,0,0,1-.94-.26l1.79.76c-1-.53,1.18,1.15.61.53s1.1,1.7.53.61l.76,1.79a4.37,4.37,0,0,1-.26-.94l.27,2a2.51,2.51,0,0,1,0-.67l-.27,2a4.37,4.37,0,0,1,.26-.94l-.76,1.79c.53-1-1.15,1.18-.53.6s-1.7,1.1-.61.54l-1.79.76a3.86,3.86,0,0,1,.94-.26l-2,.27a2.51,2.51,0,0,1,.67,0l-2-.27a3.86,3.86,0,0,1,.94.26l-1.79-.76c1,.52-1.18-1.15-.61-.54s-1.1-1.69-.53-.6l-.76-1.79a4.37,4.37,0,0,1,.26.94l-.27-2,0,.33c.21,3.92,3.3,7.69,7.5,7.5,3.88-.17,7.73-3.3,7.5-7.5a11.09,11.09,0,0,0-3.11-7.49,10.6,10.6,0,0,0-18.1,7.49c-.14,5.73,4.85,10.47,10.44,10.6a10.63,10.63,0,0,0,7.55-3,11.18,11.18,0,0,0,3.22-7.61,7.55,7.55,0,0,0-7.5-7.5A7.68,7.68,0,0,0,902.69,805.48Z" transform="translate(-601.08 -208.79)"/>
  <circle class="cls-2" cx="374.62" cy="525.14" r="3.11"/>
  <path class="cls-2" d="M971.3,733.93v.33l.26-2a4.59,4.59,0,0,1-.25,1l.75-1.8c-.52,1,1.15-1.18.54-.6s1.69-1.1.61-.54l1.79-.76a3.94,3.94,0,0,1-1,.26l2-.27a2.58,2.58,0,0,1-.68,0l2,.27a3.86,3.86,0,0,1-.94-.26l1.79.76c-1-.52,1.18,1.15.61.54s1.1,1.69.54.6l.75,1.8a5.36,5.36,0,0,1-.26-1l.27,2a3.75,3.75,0,0,1,0-.67l-.27,2a5,5,0,0,1,.26-.94l-.75,1.79c.52-1-1.16,1.18-.54.61s-1.7,1.1-.61.53l-1.79.76a4.37,4.37,0,0,1,.94-.26l-2,.27a2.58,2.58,0,0,1,.68,0l-2-.27a4.46,4.46,0,0,1,1,.26l-1.79-.76c1,.53-1.18-1.15-.61-.53s-1.1-1.7-.54-.61l-.75-1.79a4.35,4.35,0,0,1,.25.94l-.26-2v.34c.21,3.91,3.3,7.68,7.5,7.5,3.89-.18,7.73-3.31,7.5-7.5a11.11,11.11,0,0,0-3.11-7.5,10.6,10.6,0,0,0-18.1,7.5c-.14,5.73,4.86,10.46,10.44,10.59a10.62,10.62,0,0,0,7.55-3,11.13,11.13,0,0,0,3.22-7.61,7.54,7.54,0,0,0-7.5-7.5A7.67,7.67,0,0,0,971.3,733.93Z" transform="translate(-601.08 -208.79)"/>
  <circle class="cls-2" cx="500.77" cy="577.26" r="3.11"/>
  <path class="cls-2" d="M1097.46,786.05l0,.34.26-2a4.28,4.28,0,0,1-.25,1l.75-1.79c-.52,1,1.16-1.18.54-.61s1.69-1.1.61-.54l1.79-.75a4.28,4.28,0,0,1-1,.25l2-.26a3.86,3.86,0,0,1-.68,0l2,.26a4.28,4.28,0,0,1-1-.25l1.79.75c-1-.52,1.18,1.15.61.54s1.1,1.69.54.61l.75,1.79a4.93,4.93,0,0,1-.26-1l.27,2a3.86,3.86,0,0,1,0-.68l-.27,2a5,5,0,0,1,.26-.94l-.75,1.79c.52-1-1.16,1.18-.54.61s-1.69,1.1-.61.54l-1.79.75a4.93,4.93,0,0,1,1-.26l-2,.27a3.86,3.86,0,0,1,.68,0l-2-.27a4.93,4.93,0,0,1,1,.26l-1.79-.75c1,.52-1.18-1.16-.61-.54s-1.1-1.7-.54-.61l-.75-1.79a4.35,4.35,0,0,1,.25.94l-.26-2,0,.34c.21,3.91,3.29,7.69,7.5,7.5,3.88-.17,7.72-3.31,7.5-7.5a11.21,11.21,0,0,0-3.11-7.5,10.61,10.61,0,0,0-18.11,7.5c-.14,5.73,4.86,10.47,10.44,10.6a10.65,10.65,0,0,0,7.55-3,11.15,11.15,0,0,0,3.23-7.61,7.55,7.55,0,0,0-7.5-7.5A7.66,7.66,0,0,0,1097.46,786.05Z" transform="translate(-601.08 -208.79)"/>
</svg>